<?xml version="1.0" standalone="no"?>
<!DOCTYPE svg PUBLIC "-//W3C//DTD SVG 20010904//EN"
 "http://www.w3.org/TR/2001/REC-SVG-20010904/DTD/svg10.dtd">
<svg version="1.0" xmlns="http://www.w3.org/2000/svg"
 width="1801.000000pt" height="1801.000000pt" viewBox="0 0 1801.000000 1801.000000"
 preserveAspectRatio="xMidYMid meet">
<metadata>
Created by potrace 1.14, written by Peter Selinger 2001-2017
</metadata>
<g transform="translate(0.000000,1801.000000) scale(0.100000,-0.100000)"
fill="#000000" stroke="none">
<path d="M6559 17259 l-1496 -749 1 -7501 1 -7502 1495 -748 c822 -412 1497
-748 1500 -749 3 0 5 1323 5 2940 0 2609 2 2940 15 2935 13 -4 13 -4 0 7 -21
18 -21 48 -1 49 12 0 12 2 -4 9 -18 8 -18 9 -2 9 17 1 17 2 2 17 -20 20 -11
32 10 14 8 -7 15 -9 15 -5 0 4 -8 13 -17 20 -24 17 -25 54 -1 52 23 -2 23 -13
1 -26 -14 -8 -15 -10 -3 -11 8 0 28 -11 44 -25 16 -14 36 -25 45 -24 11 0 9 3
-6 9 -12 5 -26 17 -31 27 -6 10 -14 17 -19 15 -4 -2 -9 1 -11 7 -2 6 3 8 12 5
9 -3 16 -1 16 6 0 6 -4 8 -10 5 -6 -3 -10 -2 -10 2 0 5 9 14 20 21 18 11 19
10 16 -18 -2 -16 3 -38 11 -47 8 -10 12 -12 8 -5 -3 6 -2 12 4 12 14 0 29 -32
24 -50 -4 -12 -3 -12 5 -1 5 7 16 18 23 23 11 8 10 9 -3 4 -14 -4 -17 0 -14
16 1 12 8 24 14 26 7 2 10 8 7 13 -4 5 1 6 9 3 14 -5 21 5 17 28 0 4 8 6 19 5
20 -1 34 -22 24 -38 -3 -5 -1 -9 5 -9 18 0 -9 -47 -33 -58 -20 -9 -19 -10 6
-8 14 0 26 3 26 6 -2 10 22 60 28 60 3 0 4 -6 1 -14 -4 -10 1 -13 19 -11 13 1
27 -2 30 -6 3 -5 -3 -9 -13 -10 -11 0 -13 -3 -5 -6 16 -6 44 16 35 29 -3 6 0
8 8 6 8 -3 12 -14 11 -24 -3 -15 -1 -16 9 -7 10 10 10 15 0 27 -10 12 -9 15 8
13 15 -1 20 -6 16 -16 -5 -12 -3 -12 12 1 27 23 63 40 63 29 0 -5 -16 -18 -35
-30 -32 -19 -48 -51 -25 -51 5 0 6 7 3 17 -5 12 -3 14 7 8 9 -5 11 -4 6 3 -4
7 -2 12 3 12 6 0 11 -4 11 -10 0 -5 5 -10 11 -10 8 0 8 4 1 13 -9 11 -3 13 28
13 34 0 40 -3 40 -21 0 -16 -2 -17 -10 -5 -5 8 -10 10 -10 4 0 -5 5 -15 11
-21 7 -7 11 -657 11 -2234 l0 -2224 187 192 c240 248 608 627 691 713 36 37
178 184 316 326 139 143 290 298 335 345 46 48 197 203 335 345 138 143 297
306 353 364 56 58 209 215 339 349 130 134 273 281 317 327 68 70 269 277 610
629 44 45 193 198 330 340 138 142 319 328 402 414 l153 156 0 3004 0 3003
-42 43 c-38 37 -254 259 -633 650 -412 425 -551 569 -630 650 -124 127 -551
567 -658 679 -49 50 -195 201 -325 335 -131 134 -275 282 -321 330 -46 47
-192 198 -325 335 -132 136 -277 285 -321 331 -109 113 -559 576 -685 705 -56
58 -172 178 -258 268 -86 89 -160 162 -163 162 -4 0 -7 -1025 -8 -2277 0
-1253 0 -2288 -1 -2299 0 -22 -2 -22 -250 -22 -137 0 -251 3 -251 6 -1 4 -2
1376 -3 3049 0 1673 -3 3043 -6 3046 -3 2 -678 -333 -1501 -744z m2007 -11084
c1 -25 -3 -42 -7 -39 -5 3 -9 0 -9 -6 0 -6 -5 -8 -11 -5 -6 5 -4 12 8 22 10 8
11 11 3 7 -12 -7 -13 -5 -2 8 10 13 9 18 -5 29 -9 8 -14 9 -10 2 4 -6 3 -14
-2 -18 -6 -3 -7 -13 -4 -22 5 -13 2 -15 -11 -10 -9 4 -15 3 -11 -2 3 -5 0 -13
-6 -17 -8 -4 -9 -3 -5 4 5 8 1 10 -11 6 -15 -6 -15 -4 2 9 11 8 24 13 30 9 5
-3 2 4 -8 15 -17 20 -51 28 -40 10 3 -6 2 -7 -3 -4 -6 3 -16 2 -24 -3 -9 -5
-20 -4 -30 3 -13 10 -13 10 -2 -5 12 -15 11 -17 -7 -13 -11 2 -23 0 -26 -5 -3
-5 -14 -7 -24 -5 -12 2 -18 -2 -17 -12 0 -9 -5 -17 -12 -19 -7 -1 -8 0 -2 3 5
2 10 9 10 14 0 6 -6 7 -12 2 -13 -8 -18 -9 -39 -12 -5 0 -7 -6 -3 -12 4 -7 9
-8 13 -1 11 18 38 -11 37 -40 -2 -32 -15 -50 -17 -22 -1 10 -1 24 0 31 1 7 -7
10 -18 8 -12 -2 -23 1 -27 7 -4 6 -9 5 -15 -3 -7 -12 -10 -12 -21 0 -11 12
-10 12 2 6 13 -8 13 -7 0 11 -8 10 -10 16 -6 12 5 -4 16 -2 24 5 13 10 14 9 8
-1 -7 -11 -4 -11 13 -1 13 9 16 16 9 20 -9 6 -38 5 -45 -1 -2 -2 -9 -3 -15 -4
-7 -1 -12 -7 -11 -13 3 -14 -25 -25 -32 -13 -4 6 -1 10 4 10 6 0 11 5 11 11 0
8 -5 8 -15 -1 -8 -7 -12 -16 -9 -21 3 -5 0 -9 -6 -9 -6 0 -8 -5 -4 -11 4 -8 9
-7 15 2 8 12 13 6 11 -12 -1 -3 9 -5 21 -4 29 3 48 -5 41 -16 -3 -5 -9 -7 -14
-4 -9 5 -36 -34 -32 -46 0 -4 -9 -2 -23 4 -25 13 -24 29 3 25 10 -2 16 3 14
10 -1 8 2 11 8 7 5 -3 10 -1 10 5 0 7 -6 10 -12 7 -36 -14 -52 -18 -40 -10 10
8 10 12 -2 22 -10 8 -16 9 -21 1 -3 -6 -11 -8 -16 -5 -5 4 -9 0 -9 -7 0 -9 -3
-9 -10 2 -7 11 -10 11 -10 2 0 -7 -4 -10 -10 -7 -5 3 -10 11 -10 16 0 6 5 7
10 4 6 -3 10 -1 10 4 0 6 -4 11 -9 11 -5 0 -11 7 -15 15 -4 12 -2 13 13 6 10
-6 22 -7 26 -3 4 4 4 -4 0 -18 -7 -24 -7 -24 8 -5 11 14 12 22 4 27 -6 4 -14
5 -18 2 -4 -2 -12 2 -18 9 -8 11 -2 13 32 12 23 0 45 4 49 10 5 6 8 5 8 -4 0
-11 3 -11 15 -1 12 10 18 10 30 0 12 -10 15 -10 15 0 0 9 10 11 30 6 18 -3 29
-2 25 4 -3 5 4 7 15 5 11 -2 20 2 20 8 0 8 3 8 9 -2 5 -8 11 -9 15 -3 4 6 15
9 26 7 11 -2 20 0 20 6 0 5 12 7 27 5 15 -3 32 -1 38 4 6 5 21 11 33 13 12 2
25 6 28 10 4 4 13 2 21 -4 10 -9 13 -7 13 6 0 39 15 1 16 -40z m-72 -16 c-3
-5 -9 -7 -14 -4 -4 3 -10 -2 -14 -10 -3 -8 2 -18 11 -23 20 -12 9 -31 -15 -27
-9 2 -20 4 -24 4 -5 1 -7 4 -7 9 1 4 1 14 0 22 -1 12 -4 12 -12 -2 -5 -10 -15
-18 -21 -18 -7 0 -7 4 1 13 8 10 7 14 -4 14 -8 0 -11 -5 -8 -10 4 -6 1 -7 -8
-2 -12 8 -12 6 0 -8 14 -18 2 -24 -15 -7 -6 6 -10 2 -11 -12 -1 -14 1 -18 5
-11 4 7 13 9 19 5 9 -6 6 -11 -7 -20 -13 -8 -20 -9 -20 -1 0 5 -4 8 -8 5 -12
-7 -8 25 6 49 6 11 12 16 12 12 0 -5 6 -5 13 0 6 4 19 8 27 8 8 0 25 6 38 13
12 7 22 9 22 5 0 -4 5 -2 12 5 13 13 31 6 22 -9z m45 -43 c9 -10 7 -17 -5 -27
-15 -12 -16 -11 -10 9 4 12 3 22 -2 22 -13 0 -8 -48 6 -62 12 -12 31 18 27 45
-2 9 1 17 6 17 16 0 10 -67 -6 -74 -8 -3 -15 -11 -15 -18 0 -9 3 -9 10 2 5 8
12 11 16 7 11 -10 -2 -19 -31 -23 -22 -2 -24 0 -14 12 9 11 9 18 1 26 -7 7
-12 9 -12 5 0 -4 -9 -3 -20 3 -14 8 -20 8 -20 0 0 -6 -5 -8 -12 -4 -7 4 -8 3
-4 -4 4 -6 14 -8 24 -5 9 3 14 3 10 -2 -12 -13 -59 -14 -57 -2 3 25 -2 34 -17
34 -15 0 -15 -2 1 -13 15 -11 15 -14 -9 -29 -14 -10 -23 -22 -19 -29 4 -8 2
-8 -7 1 -7 6 -20 9 -29 5 -14 -5 -14 -4 -2 12 10 12 16 13 21 6 5 -8 9 -7 13
4 3 8 1 18 -5 22 -7 5 -8 2 -3 -6 5 -8 4 -11 -3 -6 -6 3 -13 2 -17 -4 -9 -15
-22 -12 -22 5 0 9 6 14 13 11 8 -3 16 -1 19 4 3 5 12 7 20 4 10 -4 13 0 11 13
-3 11 4 24 15 31 10 7 19 9 18 5 -4 -22 3 -30 24 -29 21 2 71 25 54 26 -11 0
2 20 12 20 5 0 14 -6 20 -14z m-322 -20 c0 -8 -6 -12 -15 -9 -11 5 -11 7 0 14
7 5 13 9 14 9 0 0 1 -6 1 -14z m326 -21 c-3 -9 -8 -14 -10 -11 -3 3 -2 9 2 15
9 16 15 13 8 -4z"/>
<path d="M8515 6200 c-4 -6 -12 -7 -18 -3 -7 4 -6 -1 2 -10 15 -19 24 -16 27
8 3 17 -2 19 -11 5z"/>
<path d="M8345 6159 c-3 -4 2 -6 10 -5 21 3 28 13 10 13 -9 0 -18 -4 -20 -8z"/>
<path d="M8294 6149 c-8 -14 14 -19 25 -6 8 10 7 14 -5 14 -8 0 -17 -4 -20 -8z"/>
<path d="M8126 6125 c12 -8 14 -14 6 -19 -7 -4 -12 -12 -12 -17 0 -10 13 1 37
31 10 13 7 15 -18 16 -26 2 -27 0 -13 -11z"/>
<path d="M8442 6125 c5 -12 17 -22 25 -22 13 0 13 2 -2 13 -9 7 -15 17 -11 22
3 5 -1 9 -8 9 -11 0 -12 -6 -4 -22z"/>
<path d="M8269 6048 c-1 -7 -1 -19 0 -26 1 -8 -6 -20 -16 -28 -10 -7 -13 -14
-6 -14 18 0 45 43 32 51 -8 4 -7 8 2 11 10 3 10 6 1 12 -7 4 -13 2 -13 -6z"/>
<path d="M8225 6019 c-4 -6 -5 -13 -2 -16 7 -7 27 6 27 18 0 12 -17 12 -25 -2z"/>
<path d="M8106 5974 c-4 -9 -4 -19 -1 -22 3 -3 5 0 5 7 0 7 4 9 10 6 6 -3 7 1
4 9 -8 20 -10 20 -18 0z"/>
<path d="M8331 5973 c-1 -27 8 -33 34 -22 19 9 19 9 -2 5 -16 -3 -23 2 -26 18
l-4 21 -2 -22z"/>
<path d="M8521 5974 c0 -11 3 -14 6 -6 3 7 2 16 -1 19 -3 4 -6 -2 -5 -13z"/>
<path d="M8390 5971 c0 -5 7 -15 17 -22 15 -13 15 -12 4 9 -12 23 -21 28 -21
13z"/>
<path d="M8230 5961 c0 -6 4 -13 10 -16 6 -3 7 1 4 9 -7 18 -14 21 -14 7z"/>
<path d="M8310 5951 c0 -6 4 -13 10 -16 6 -3 7 1 4 9 -7 18 -14 21 -14 7z"/>
<path d="M8114 5939 c-3 -6 -2 -15 3 -20 5 -5 9 -1 9 11 0 23 -2 24 -12 9z"/>
<path d="M8276 5934 c1 -6 -3 -18 -9 -25 -7 -7 -3 -6 9 4 11 9 24 14 29 10 4
-5 5 -2 1 5 -4 7 -11 10 -16 7 -4 -3 -10 -2 -13 2 -2 5 -3 3 -1 -3z"/>
<path d="M8429 5933 c-13 -16 -12 -17 4 -4 9 7 17 15 17 17 0 8 -8 3 -21 -13z"/>
<path d="M8470 5943 c5 -2 8 -9 5 -13 -3 -5 -1 -11 4 -14 5 -4 8 2 7 11 -2 9
-8 18 -15 19 -6 1 -7 0 -1 -3z"/>
<path d="M8143 5934 c3 -3 29 -7 57 -9 28 -2 49 -1 46 2 -3 3 -28 7 -57 9 -28
2 -49 1 -46 -2z"/>
<path d="M8370 5930 c0 -5 5 -10 10 -10 6 0 10 5 10 10 0 6 -4 10 -10 10 -5 0
-10 -4 -10 -10z"/>
<path d="M8509 5913 c-13 -16 -12 -17 4 -4 9 7 17 15 17 17 0 8 -8 3 -21 -13z"/>
<path d="M8340 5916 c0 -2 8 -10 18 -17 15 -13 16 -12 3 4 -13 16 -21 21 -21
13z"/>
<path d="M8215 5890 c2 -27 10 -33 12 -10 1 11 -2 22 -6 24 -4 3 -7 -4 -6 -14z"/>
<path d="M8415 5901 c-3 -5 -2 -12 3 -15 5 -3 9 1 9 9 0 17 -3 19 -12 6z"/>
<path d="M8453 5895 c0 -8 4 -12 9 -9 5 3 6 10 3 15 -9 13 -12 11 -12 -6z"/>
<path d="M8170 5869 c0 -5 5 -7 10 -4 6 3 10 8 10 11 0 2 -4 4 -10 4 -5 0 -10
-5 -10 -11z"/>
</g>
</svg>
